<svg width="46" height="47" viewBox="0 0 46 47" fill="none" xmlns="http://www.w3.org/2000/svg">
<g clip-path="url(#clip0_4589_271)">
<path d="M23 0C10.2979 0 0 10.5218 0 23.5C0 36.4782 10.2979 47 23 47C35.7021 47 46 36.4782 46 23.5C46 10.5218 35.7021 0 23 0ZM37.9931 38.8191C33.9888 42.9114 28.6638 45.1641 23 45.1641C17.3362 45.1641 12.0121 42.9104 8.00688 38.8191C4.00254 34.7277 1.79688 29.2869 1.79688 23.5C1.79688 17.7131 4.00254 12.2732 8.00688 8.18094C12.0112 4.08863 17.3362 1.83594 23 1.83594C28.6638 1.83594 33.9879 4.08955 37.9931 8.18094C41.9984 12.2723 44.2031 17.7131 44.2031 23.5C44.2031 29.2869 41.9975 34.7268 37.9931 38.8191ZM28.6817 17.3377C28.6817 14.1321 26.1382 11.5334 23.0009 11.5334C19.8636 11.5334 17.3201 14.1321 17.3201 17.3377C17.3201 20.5432 19.8636 23.142 23.0009 23.142C26.1382 23.142 28.6817 20.5432 28.6817 17.3377ZM22.2777 20.0723C21.9821 20.3743 21.5023 20.3743 21.2067 20.0723L19.4404 18.2676C19.1448 17.9656 19.1448 17.4754 19.4404 17.1734C19.736 16.8713 20.2157 16.8713 20.5113 17.1734L21.7431 18.4319L25.4905 14.603C25.7861 14.301 26.2658 14.301 26.5614 14.603C26.857 14.9051 26.857 15.3953 26.5614 15.6973L22.2786 20.0732L22.2777 20.0723ZM36.2502 33.762C36.2502 36.9657 30.3178 39.5645 23 39.5645C15.6822 39.5645 9.74984 36.9666 9.74984 33.762C9.74984 31.9095 11.7318 30.2599 14.8188 29.1978C15.3166 29.0262 15.8646 29.2226 16.1557 29.6688C16.1602 29.6761 16.1647 29.6825 16.1692 29.6899C16.5825 30.3242 16.3138 31.1825 15.6202 31.4606C14.0884 32.0747 13.1576 32.8798 13.1576 33.762C13.1576 35.6814 17.5725 37.2438 23 37.2438C28.4275 37.2438 32.8424 35.6824 32.8424 33.762C32.8424 32.8798 31.9107 32.0747 30.378 31.4606C29.6844 31.1825 29.4175 30.3233 29.8299 29.6899L29.8434 29.6688C30.1345 29.2217 30.6834 29.0262 31.1812 29.1978C34.2673 30.2608 36.2493 31.9095 36.2493 33.762H36.2502ZM24.5085 32.9964C27.2325 29.3208 32.6914 21.4419 32.6914 17.3377C32.6914 11.8693 28.3529 7.43555 23 7.43555C17.6471 7.43555 13.3086 11.8684 13.3086 17.3377C13.3086 21.4419 18.7684 29.3218 21.4915 32.9964C22.248 34.0172 23.7511 34.0172 24.5076 32.9964H24.5085ZM15.4765 17.3377C15.4765 13.0921 18.8447 9.65061 23 9.65061C27.1553 9.65061 30.5235 13.0921 30.5235 17.3377C30.5235 21.5833 27.1553 25.0247 23 25.0247C18.8447 25.0247 15.4765 21.5833 15.4765 17.3377Z" fill="url(#paint0_linear_4589_271)"/>
</g>
<defs>
<linearGradient id="paint0_linear_4589_271" x1="23" y1="0" x2="23" y2="47" gradientUnits="userSpaceOnUse">
<stop stop-color="#FA612F"/>
<stop offset="0.58" stop-color="#FB4A55"/>
<stop offset="1" stop-color="#E620AF"/>
</linearGradient>
<clipPath id="clip0_4589_271">
<rect width="46" height="47" fill="white"/>
</clipPath>
</defs>
</svg>
