<svg width="53" height="50" viewBox="0 0 53 50" fill="none" xmlns="http://www.w3.org/2000/svg">
<path d="M0.0288607 20.8076C3.41668 20.7755 6.80448 20.7507 10.1924 20.7358C10.5926 20.7341 10.9927 20.7322 11.3928 20.7304C11.4725 20.73 11.5522 20.7296 11.6342 20.7293C12.9234 20.7231 14.2125 20.7121 15.5016 20.6991C16.8248 20.686 18.1479 20.6783 19.4712 20.6753C20.2143 20.6735 20.9572 20.6692 21.7003 20.6589C22.3998 20.6494 23.0991 20.6465 23.7987 20.6486C24.0553 20.6482 24.3119 20.6454 24.5685 20.64C26.5105 20.6012 26.5105 20.6012 27.0938 21.109C27.3333 21.4679 27.5041 21.8232 27.6851 22.2139C28.0163 22.6246 28.3747 23.0051 28.7398 23.3858C28.8812 23.5344 28.8812 23.5344 29.0254 23.686C29.1245 23.7803 29.2236 23.8746 29.3257 23.9717C29.4043 24.0483 29.4828 24.1249 29.5638 24.2038C32.3804 26.8604 36.2584 28.0922 40.085 27.9886C43.7688 27.8234 47.0447 26.3456 49.7095 23.8252C49.9507 23.6201 49.9507 23.6201 50.3023 23.5029C50.3105 26.2921 50.3167 29.0812 50.3205 31.8704C50.3223 33.1655 50.3248 34.4606 50.3288 35.7557C50.3323 36.8848 50.3346 38.014 50.3354 39.1431C50.3358 39.7407 50.3369 40.3383 50.3395 40.9359C50.3419 41.499 50.3426 42.0622 50.3421 42.6254C50.3422 42.8314 50.3429 43.0374 50.3442 43.2434C50.3549 44.9613 50.1992 46.4502 49.0169 47.7873C47.5965 49.1613 45.9125 49.185 44.0486 49.1827C43.8786 49.1829 43.7085 49.1832 43.5384 49.1835C43.0732 49.1842 42.608 49.1842 42.1428 49.184C41.6402 49.184 41.1377 49.1847 40.6351 49.1852C39.6513 49.1862 38.6676 49.1865 37.6838 49.1866C36.8839 49.1866 36.084 49.1869 35.2842 49.1872C33.0149 49.1883 30.7455 49.1888 28.4762 49.1887C28.354 49.1887 28.2317 49.1887 28.1058 49.1887C27.9834 49.1887 27.861 49.1887 27.7349 49.1887C25.7512 49.1887 23.7676 49.1898 21.7839 49.1914C19.7456 49.1931 17.7073 49.1939 15.669 49.1938C14.5253 49.1938 13.3815 49.1941 12.2378 49.1954C11.264 49.1964 10.2903 49.1967 9.31651 49.1959C8.82006 49.1955 8.32361 49.1955 7.82716 49.1965C7.37196 49.1974 6.91678 49.1973 6.46158 49.1962C6.29764 49.1961 6.13369 49.1963 5.96975 49.1969C4.15548 49.2037 2.55869 49.0444 1.17968 47.763C0.308157 46.7961 -0.00857817 45.7686 0.000676083 44.4968C0.000475827 44.3952 0.000275572 44.2935 6.92471e-05 44.1887C-0.000315428 43.8496 0.000970237 43.5104 0.00225322 43.1712C0.00231936 42.9275 0.00228217 42.6838 0.00214951 42.4401C0.00208231 41.7794 0.00345966 41.1187 0.00509653 40.458C0.00656235 39.7672 0.00669942 39.0764 0.00697749 38.3855C0.00770574 37.0778 0.00962884 35.7701 0.0119813 34.4623C0.0146016 32.9733 0.0158898 31.4843 0.0170661 29.9953C0.0195155 26.9328 0.0236376 23.8702 0.0288607 20.8076Z" fill="url(#paint0_linear_4538_316)"/>
<path d="M47.5476 2.64728C47.7248 2.79951 47.9006 2.95328 48.075 3.10871C48.1647 3.18318 48.2544 3.25765 48.3469 3.33438C50.8296 5.43413 52.1248 8.61734 52.5281 11.7806C52.7897 15.54 51.8732 18.9709 49.3641 21.8587C47.019 24.4837 43.8113 26.0902 40.2868 26.3316C36.9241 26.4887 33.5094 25.5403 30.9656 23.265C30.8686 23.1832 30.7716 23.1015 30.6717 23.0173C28.1786 20.871 26.5485 17.6446 26.2781 14.3587C26.0567 10.6985 27.1429 7.06276 29.5594 4.28058C33.9752 -0.660906 42.2895 -1.48292 47.5476 2.64728ZM40.2234 7.56183C40.0587 7.93756 40.0587 7.93756 39.9321 8.37058C39.9067 8.45108 39.8813 8.53158 39.8551 8.61451C39.7715 8.88027 39.6901 9.14662 39.6086 9.41303C39.5504 9.5997 39.4921 9.78634 39.4336 9.97294C39.2797 10.465 39.1277 10.9576 38.9759 11.4504C38.8233 11.9451 38.669 12.4394 38.5148 12.9337C38.3405 13.4929 38.1665 14.0522 37.9934 14.6118C37.967 14.6974 37.9405 14.7829 37.9132 14.8711C37.8613 15.0392 37.8096 15.2074 37.7579 15.3756C37.6284 15.7968 37.496 16.2168 37.3586 16.6355C37.3313 16.7198 37.304 16.8041 37.2758 16.891C37.2242 17.0499 37.1718 17.2085 37.1184 17.3668C36.9713 17.8226 36.8986 18.2161 36.9422 18.6946C37.1526 18.9727 37.3252 19.1219 37.638 19.2733C38.0248 19.285 38.1702 19.1802 38.4656 18.929C38.9716 17.9395 39.2655 16.8685 39.5913 15.8098C39.6533 15.6098 39.7154 15.4099 39.7776 15.2099C39.9401 14.6866 40.1019 14.1631 40.2635 13.6395C40.4284 13.1055 40.5941 12.5717 40.7597 12.0378C40.9456 11.4384 41.1315 10.839 41.3168 10.2394C41.3449 10.1486 41.373 10.0577 41.4019 9.96411C41.4543 9.7946 41.5067 9.62509 41.559 9.45556C41.6579 9.13576 41.7582 8.8169 41.8641 8.49933C41.9296 7.84433 41.9296 7.84433 41.6736 7.26886C41.0634 6.88344 40.6561 7.03408 40.2234 7.56183ZM33.1551 10.3116C32.7437 10.7002 32.346 11.101 31.9503 11.5055C31.6893 11.7605 31.4192 11.9856 31.1341 12.2127C30.8225 12.4848 30.7285 12.6073 30.5628 13.0037C30.6403 13.6346 30.991 13.9269 31.4344 14.3587C31.5486 14.477 31.5486 14.477 31.6651 14.5977C32.1163 15.0614 32.5892 15.4917 33.08 15.9128C33.388 16.1864 33.6745 16.4784 33.9603 16.7748C34.2104 17.0141 34.3526 17.0528 34.701 17.0906C35.0725 17.0831 35.0725 17.0831 35.3455 16.8636C35.5536 16.5941 35.5536 16.5941 35.6165 16.263C35.3666 15.0818 33.819 14.092 32.9578 13.304C33.0454 12.8992 33.1285 12.7503 33.4558 12.491C33.9303 12.091 34.3858 11.6761 34.8328 11.2459C34.9017 11.1824 34.9706 11.1189 35.0417 11.0535C35.3727 10.7311 35.523 10.5787 35.5927 10.1097C35.5204 9.7007 35.3966 9.56672 35.0672 9.31964C34.3371 8.96639 33.6521 9.85745 33.1551 10.3116ZM43.5047 9.55402C43.3103 9.88319 43.3103 9.88319 43.2703 10.2571C43.4807 10.6786 43.7352 10.9803 44.0796 11.2981C44.1668 11.3792 44.254 11.4603 44.3438 11.5439C44.4795 11.6683 44.4795 11.6683 44.618 11.7952C44.7974 11.9615 44.9769 12.1278 45.1563 12.2942C45.2357 12.3672 45.3151 12.4402 45.3968 12.5153C45.5907 12.6963 45.7795 12.8808 45.9656 13.0696C45.8071 13.4337 45.6431 13.641 45.3357 13.89C44.8882 14.2707 44.4601 14.6666 44.0393 15.0765C43.977 15.1354 43.9146 15.1943 43.8503 15.255C43.4978 15.6019 43.2937 15.8482 43.2703 16.3509C43.4039 16.7406 43.5008 16.8171 43.8562 17.054C44.5385 17.0412 44.8987 16.8197 45.365 16.3509C45.4253 16.293 45.4857 16.2351 45.5478 16.1755C45.7281 16.0014 45.9058 15.8251 46.0828 15.6478C46.1792 15.5517 46.2756 15.4556 46.3749 15.3566C46.5474 15.1834 46.7194 15.0097 46.8908 14.8352C47.2068 14.525 47.5415 14.2412 47.8841 13.9609C48.1004 13.7477 48.2119 13.5923 48.3094 13.304C48.2616 12.818 48.1237 12.5921 47.7779 12.2539C47.6926 12.1696 47.6074 12.0853 47.5195 11.9985C47.4297 11.9121 47.3399 11.8257 47.2474 11.7366C47.1607 11.6511 47.0741 11.5656 46.9848 11.4775C46.4918 10.9945 45.9864 10.5306 45.4615 10.0824C45.2625 9.90558 45.2625 9.90558 44.9475 9.56867C44.4343 9.09701 44.0367 9.1083 43.5047 9.55402Z" fill="url(#paint1_linear_4538_316)"/>
<path d="M5.63522 9.39932C5.84666 9.39942 6.0581 9.39936 6.26953 9.39916C6.84111 9.39906 7.41267 9.40112 7.98425 9.40358C8.58248 9.40578 9.18071 9.40599 9.77894 9.4064C10.9107 9.40749 12.0424 9.41038 13.1742 9.41391C14.4631 9.41784 15.752 9.41977 17.041 9.42154C19.6914 9.42521 22.3418 9.43139 24.9922 9.43923C24.9818 9.51107 24.9713 9.58292 24.9606 9.65695C24.9128 9.9891 24.866 10.3214 24.8192 10.6537C24.8028 10.7666 24.7864 10.8796 24.7695 10.996C24.4167 13.5197 24.6863 15.8901 25.5539 18.2796C25.6953 18.697 25.6953 18.697 25.6953 19.0486C17.2262 19.0486 8.75703 19.0486 0.03125 19.0486C0.03125 11.9149 0.03125 11.9149 1.32031 10.6111C2.66618 9.46578 3.94831 9.38821 5.63522 9.39932ZM4.36719 13.8924C4.28906 14.2439 4.28906 14.2439 4.36719 14.5955C4.62876 14.9292 4.78319 15.0466 5.1875 15.1814C5.39701 15.1927 5.60693 15.1972 5.81675 15.1979C6.01266 15.1989 6.01266 15.1989 6.21253 15.1999C6.35591 15.2 6.49928 15.2002 6.64699 15.2003C6.79793 15.2009 6.94887 15.2015 7.10439 15.2021C7.51867 15.2036 7.93296 15.2044 8.34725 15.2049C8.60615 15.2052 8.86506 15.2057 9.12397 15.2062C9.93426 15.2078 10.7445 15.209 11.5548 15.2094C12.4898 15.2099 13.4247 15.212 14.3596 15.2154C15.0826 15.2179 15.8055 15.2191 16.5284 15.2193C16.9601 15.2194 17.3917 15.2201 17.8234 15.2222C18.3051 15.2245 18.7867 15.2239 19.2685 15.2232C19.4111 15.2243 19.5538 15.2253 19.7008 15.2265C20.6398 15.228 20.6398 15.228 21.4766 14.8299C21.643 14.4969 21.6306 14.2609 21.5938 13.8924C21.3507 13.5759 21.2104 13.4398 20.8142 13.3646C20.6952 13.3644 20.5761 13.3643 20.4534 13.3641C20.3164 13.3628 20.1793 13.3614 20.0382 13.3601C19.8883 13.361 19.7384 13.362 19.5839 13.3629C19.4241 13.3623 19.2644 13.3615 19.1046 13.3605C18.6709 13.3583 18.2373 13.3592 17.8037 13.3606C17.3499 13.3618 16.896 13.3607 16.4422 13.36C15.6801 13.3591 14.918 13.3603 14.1559 13.3625C13.2749 13.365 12.3938 13.3642 11.5127 13.3616C10.7562 13.3595 9.99976 13.3592 9.24327 13.3604C8.79145 13.3612 8.33966 13.3613 7.88784 13.3597C7.46306 13.3584 7.03834 13.3593 6.61356 13.362C6.3833 13.3629 6.15304 13.3615 5.92278 13.3601C5.78575 13.3614 5.64873 13.3627 5.50755 13.3641C5.38847 13.3643 5.26939 13.3644 5.1467 13.3646C4.7508 13.4398 4.61153 13.5775 4.36719 13.8924Z" fill="url(#paint2_linear_4538_316)"/>
<defs>
<linearGradient id="paint0_linear_4538_316" x1="25.1723" y1="20.625" x2="25.1723" y2="49.1971" gradientUnits="userSpaceOnUse">
<stop stop-color="#FA612F"/>
<stop offset="0.58" stop-color="#FB4A55"/>
<stop offset="1" stop-color="#E620AF"/>
</linearGradient>
<linearGradient id="paint1_linear_4538_316" x1="39.4106" y1="0" x2="39.4106" y2="26.3482" gradientUnits="userSpaceOnUse">
<stop stop-color="#FA612F"/>
<stop offset="0.58" stop-color="#FB4A55"/>
<stop offset="1" stop-color="#E620AF"/>
</linearGradient>
<linearGradient id="paint2_linear_4538_316" x1="12.8633" y1="9.39844" x2="12.8633" y2="19.0486" gradientUnits="userSpaceOnUse">
<stop stop-color="#FA612F"/>
<stop offset="0.58" stop-color="#FB4A55"/>
<stop offset="1" stop-color="#E620AF"/>
</linearGradient>
</defs>
</svg>
